<svg
      
      version="1.0"
      xmlns="http://www.w3.org/2000/svg"
      viewBox="0 0 300.000000 269.000000"
      preserveAspectRatio="xMidYMid meet"
    >
      <metadata>
        Created by potrace 1.10, written by Peter Selinger 2001-2011
      </metadata>
      <g
        transform="translate(0.000000,269.000000) scale(0.100000,-0.100000)"
        fill="#000000"
        stroke="none"
      >
        <path
          d="M314 1670 c-59 -30 -169 -147 -182 -194 -8 -28 -7 -90 4 -230 8 -105
    18 -240 23 -299 9 -121 22 -149 82 -179 45 -23 198 -27 251 -8 31 11 44 12 72
    2 51 -19 190 -25 246 -12 26 6 58 22 71 36 26 28 47 31 56 9 3 -9 19 -23 36
    -31 27 -14 115 -16 753 -16 795 0 781 -1 876 62 60 40 182 168 208 220 26 51
    35 124 22 171 -8 31 -6 44 19 95 41 83 41 168 -1 240 -34 60 -77 99 -140 128
    -44 20 -59 20 -892 21 -665 0 -850 -3 -859 -12 -17 -17 -40 -16 -75 2 -39 20
    -162 20 -214 -1 -37 -15 -43 -15 -80 0 -62 25 -223 22 -276 -4z m278 -17 c42
    -15 51 -15 74 -2 18 9 58 14 119 14 78 0 96 -3 114 -19 21 -19 22 -19 61 3
    l40 22 833 -4 c917 -5 866 -2 942 -69 88 -77 110 -197 54 -296 -29 -52 -30
    -57 -19 -98 26 -92 -4 -166 -108 -276 -83 -87 -146 -131 -212 -148 -63 -17
    -1478 -17 -1509 0 -12 6 -30 25 -40 41 -18 29 -18 29 -36 9 -48 -53 -84 -65
    -195 -65 -81 1 -113 5 -139 19 -32 17 -36 17 -72 1 -51 -24 -232 -18 -272 8
    -37 24 -44 59 -62 342 -9 138 -18 257 -21 266 -2 9 0 36 5 60 8 36 24 58 89
    121 44 42 90 78 103 81 64 12 206 6 251 -10z"
        />
        <path
          d="M352 1533 c2 -24 -2 -38 -11 -41 -10 -3 -12 1 -8 17 3 11 1 21 -4 21
    -5 0 -9 -7 -9 -15 0 -8 -9 -15 -20 -15 -13 0 -20 -7 -20 -20 0 -14 -7 -20 -21
    -20 -19 0 -20 -4 -14 -67 5 -68 35 -505 35 -523 0 -6 41 -10 99 -10 91 0 100
    2 106 20 3 11 12 20 20 20 7 0 16 7 19 16 9 23 8 24 -14 24 -11 0 -20 -4 -20
    -10 0 -6 -33 -10 -80 -10 -80 0 -80 0 -80 26 0 14 -7 130 -16 256 -8 127 -13
    233 -10 236 14 14 20 -23 35 -250 l16 -243 65 -1 c63 -1 63 -1 8 3 l-57 4 -5
    42 c-3 23 -11 128 -16 232 -6 105 -13 195 -15 202 -2 6 3 14 11 17 9 4 14 -2
    14 -17 0 -12 7 -114 15 -227 8 -113 15 -211 15 -217 0 -9 19 -13 61 -13 33 0
    58 -4 55 -9 -3 -5 5 -11 18 -13 17 -4 23 -1 19 9 -3 9 3 13 19 13 18 0 29 9
    40 33 15 31 16 29 10 -55 l-5 -88 98 0 98 0 35 38 c31 32 33 37 17 41 -11 2
    -21 -2 -23 -8 -2 -7 -33 -11 -81 -11 l-78 0 -7 105 c-6 102 -6 107 23 173 l30
    67 1 -147 0 -148 66 0 c36 0 63 -4 60 -9 -3 -5 5 -11 18 -13 17 -3 23 -1 19 8
    -3 7 5 14 17 16 18 2 44 45 126 206 57 112 104 198 104 192 0 -7 -7 -39 -16
    -73 -22 -87 -94 -410 -94 -424 0 -10 52 -13 226 -13 217 0 226 1 231 20 3 11
    11 20 18 20 7 0 15 9 18 20 3 11 1 20 -4 20 -5 0 -9 -4 -9 -10 0 -5 -5 -10
    -11 -10 -5 0 -7 5 -4 10 3 6 1 10 -4 10 -6 0 -11 -4 -11 -10 0 -6 -73 -10
    -198 -10 l-199 0 59 263 c33 144 60 269 60 277 1 8 6 19 12 23 7 6 4 7 -6 3
    -23 -7 -22 -4 2 36 11 18 20 36 20 41 0 4 -50 7 -110 7 -109 0 -111 0 -120
    -26 -6 -15 -14 -22 -22 -18 -8 5 -9 2 -5 -9 6 -15 -74 -228 -94 -251 -5 -5 -8
    20 -8 55 1 35 1 106 0 157 l-1 92 -74 0 c-73 0 -75 0 -94 -32 -10 -18 -43 -88
    -73 -156 -31 -71 -55 -114 -57 -103 -3 16 43 129 78 193 17 30 11 31 -18 1
    -28 -28 -51 -70 -32 -58 15 9 12 -1 -10 -42 l-20 -38 0 118 0 117 -106 0 -106
    0 4 -37z m190 -170 l3 -187 86 185 85 184 62 3 62 3 2 -133 c2 -73 3 -157 3
    -186 0 -28 2 -52 5 -52 3 0 41 83 84 185 l79 185 89 0 c48 0 88 -2 88 -4 0 -2
    -63 -128 -141 -280 l-141 -276 -84 0 -84 0 0 177 c0 97 -4 173 -8 168 -5 -6
    -42 -85 -82 -177 l-74 -168 -82 0 -83 0 -5 43 c-3 23 -10 123 -16 222 -5 99
    -13 206 -16 238 l-6 57 86 0 86 0 2 -187z m574 -181 l-63 -282 203 0 c129 0
    204 -4 204 -10 0 -6 -77 -10 -210 -10 -134 0 -210 4 -210 10 0 6 14 72 31 148
    17 75 41 191 55 257 23 113 42 180 50 172 2 -2 -25 -130 -60 -285z m-832 206
    c3 -29 11 -132 16 -228 6 -96 13 -194 16 -217 l5 -43 80 0 c51 0 78 -4 74 -10
    -3 -5 -44 -10 -90 -10 -80 0 -85 1 -89 23 -3 12 -10 110 -16 217 -6 107 -14
    223 -17 258 -4 41 -2 62 5 62 6 0 13 -24 16 -52z m447 -488 c51 0 78 -4 74
    -10 -3 -5 -44 -10 -91 -10 l-84 0 0 94 c0 132 14 154 18 29 l3 -103 80 0z"
        />
        <path
          d="M1257 1563 c-4 -3 -7 -17 -7 -29 0 -13 -5 -26 -11 -29 -6 -4 -8 -13
    -5 -21 3 -7 1 -16 -5 -19 -5 -4 -7 -10 -4 -14 2 -5 -18 -109 -45 -232 -27
    -123 -50 -230 -50 -236 0 -10 42 -13 175 -13 133 0 175 -3 175 -12 0 -9 4 -8
    10 2 9 13 11 13 20 0 6 -10 10 -11 10 -2 0 6 7 12 15 12 17 0 18 -1 6 -32 -4
    -13 -11 -35 -15 -50 l-6 -28 230 0 c219 0 230 1 230 19 0 10 9 21 20 24 11 3
    20 13 20 22 0 14 -3 15 -14 6 -11 -9 -15 -9 -19 1 -4 10 -6 10 -6 1 -1 -10
    -48 -13 -202 -13 l-201 0 7 33 c49 236 109 493 116 495 5 2 6 8 3 14 -4 6 0
    14 7 19 11 7 11 9 1 9 -10 0 -12 10 -7 40 l7 40 -224 0 c-124 0 -228 -3 -231
    -7z m427 -50 c-4 -21 -10 -49 -14 -63 l-7 -25 -125 4 c-138 4 -136 4 -152 -61
    l-6 -28 130 0 c127 0 131 -1 126 -20 -6 -21 -10 -37 -20 -82 l-6 -28 -130 0
    -129 0 -8 -42 -9 -43 131 -5 131 -5 -13 -62 -14 -63 -210 0 c-115 0 -209 2
    -209 5 0 2 27 126 60 276 33 149 60 273 60 275 0 2 95 4 210 4 l211 0 -7 -37z
    m-109 -113 c-3 -5 -1 -10 4 -10 6 0 11 5 11 10 0 6 11 10 25 10 20 0 25 -5 25
    -24 0 -25 -21 -48 -27 -30 -2 5 -47 8 -103 6 -93 -3 -100 -2 -100 15 0 11 3
    23 7 26 11 11 165 8 158 -3z m-55 -222 c0 -9 4 -8 10 2 9 13 11 13 20 0 6 -10
    10 -11 10 -2 0 22 30 13 31 -10 l2 -23 4 23 c2 12 9 22 14 22 6 0 9 -10 7 -22
    -2 -18 -11 -24 -37 -26 -21 -2 -31 0 -26 7 3 6 1 11 -4 11 -6 0 -11 -6 -11
    -12 0 -9 -4 -8 -11 2 -8 11 -12 12 -16 3 -3 -9 -29 -13 -79 -13 -65 0 -74 2
    -74 18 0 29 8 32 87 32 52 0 73 -4 73 -12z m49 -240 c-5 -18 -9 -34 -9 -35 0
    -2 92 -3 205 -3 130 0 205 -4 205 -10 0 -6 -78 -10 -215 -10 l-215 0 6 28 c11
    52 15 62 24 62 5 0 4 -15 -1 -32z"
        />
        <path d="M1408 1163 c17 -2 47 -2 65 0 17 2 3 4 -33 4 -36 0 -50 -2 -32 -4z" />
        <path
          d="M1754 1530 c-4 -22 -9 -40 -13 -40 -3 0 -7 -14 -8 -31 -2 -27 -85
    -424 -99 -471 -5 -17 8 -18 176 -18 118 0 179 -3 175 -10 -3 -5 -1 -10 4 -10
    6 0 11 6 11 13 0 8 4 7 11 -3 8 -11 12 -12 16 -2 2 6 15 12 28 12 22 0 23 -3
    18 -36 l-6 -35 226 3 c154 2 220 0 209 -7 -10 -6 -114 -11 -235 -13 l-219 -3
    6 43 c8 53 -9 31 -19 -25 l-8 -39 224 4 c187 3 229 6 255 20 41 22 104 79 104
    93 0 6 12 18 26 26 89 47 119 185 54 244 -20 18 -20 18 14 41 64 44 86 146 46
    212 -38 61 -79 72 -293 72 -181 0 -189 -1 -194 -20 -3 -11 -12 -20 -19 -20 -8
    0 -14 -5 -14 -11 0 -5 5 -7 10 -4 6 3 10 -1 10 -9 0 -9 -6 -16 -12 -16 -9 0
    -8 -4 2 -11 11 -8 12 -12 2 -16 -6 -2 -10 -8 -7 -12 2 -5 -18 -109 -45 -232
    -27 -123 -50 -230 -50 -237 0 -11 42 -13 230 -10 220 3 229 2 207 -14 -42 -34
    -88 -39 -293 -36 l-201 3 53 239 c29 131 56 256 59 277 4 22 11 39 17 39 7 0
    7 5 -1 13 -6 8 -9 16 -7 18 2 2 6 16 10 32 l6 27 -230 0 -230 0 -6 -40z m443
    13 c-3 -5 -10 -34 -16 -65 l-12 -57 -129 2 c-70 1 -130 0 -133 -3 -3 -3 -8
    -22 -12 -42 l-7 -38 126 0 c69 0 126 -4 126 -8 0 -5 -5 -34 -11 -65 l-12 -57
    -128 0 c-70 0 -130 -3 -132 -7 -2 -5 -7 -25 -11 -45 l-7 -38 131 0 131 0 -7
    -37 c-4 -21 -10 -49 -14 -63 l-6 -25 -210 -3 -211 -2 58 262 c32 145 59 271
    59 281 0 16 17 17 216 17 118 0 213 -3 211 -7z m477 -7 c50 -21 76 -60 76
    -115 0 -78 -56 -141 -125 -141 -15 0 -24 -4 -20 -10 3 -5 14 -10 24 -10 26 0
    68 -45 75 -81 14 -74 -42 -156 -121 -178 -37 -11 -423 -16 -423 -6 0 3 27 127
    60 275 33 148 60 272 60 275 0 3 81 5 180 5 131 0 190 -4 214 -14z m-593 -143
    c1 -17 2 -17 6 0 2 9 9 17 14 17 5 0 10 -8 10 -17 1 -17 2 -17 6 0 2 9 11 17
    19 17 8 0 15 -8 15 -17 1 -17 2 -17 6 0 7 27 21 20 15 -8 -5 -26 -22 -45 -22
    -24 0 8 -3 9 -13 0 -8 -6 -17 -8 -21 -4 -4 4 -52 6 -108 4 -90 -2 -100 -1 -94
    14 3 9 6 21 6 26 0 5 36 9 80 9 69 0 80 -2 81 -17z m-50 -215 c0 -10 2 -10 6
    0 2 6 9 12 14 12 6 0 7 -4 4 -10 -3 -5 -1 -10 4 -10 6 0 11 5 11 10 0 6 6 10
    14 10 9 0 12 -8 8 -25 -4 -25 -32 -36 -32 -13 0 6 -7 3 -15 -8 -14 -19 -14
    -19 -15 1 -1 11 -4 14 -7 8 -3 -9 -30 -13 -85 -13 -69 0 -79 2 -74 16 3 9 6
    20 6 25 0 15 160 11 161 -3z"
        />
        <path
          d="M2406 1403 c-4 -16 -9 -36 -12 -45 -5 -16 4 -18 85 -18 79 0 92 2
    101 19 26 50 -2 71 -95 71 -71 0 -73 -1 -79 -27z m161 -9 c9 -25 -10 -34 -80
    -38 l-67 -4 0 29 0 29 70 0 c55 0 72 -3 77 -16z"
        />
        <path
          d="M2355 1178 c-4 -18 -9 -41 -11 -50 -5 -16 3 -18 73 -18 87 0 126 15
    131 48 6 42 -14 52 -103 52 l-83 0 -7 -32z m175 -8 c0 -28 -37 -40 -104 -33
    -44 5 -56 10 -56 23 0 27 9 30 87 30 67 0 73 -2 73 -20z"
        />
        <path
          d="M2400 1164 c35 -7 98 -9 94 -2 -3 5 -29 7 -57 7 -29 -1 -45 -3 -37
    -5z"
        />
        <path d="M1918 1163 c17 -2 47 -2 65 0 17 2 3 4 -33 4 -36 0 -50 -2 -32 -4z" />
        <path
          d="M923 1480 c-3 -11 -11 -20 -18 -20 -13 0 -39 -59 -30 -68 3 -3 5 -1
    5 4 0 6 7 19 15 30 10 12 8 3 -5 -29 -33 -79 -22 -78 14 1 18 40 36 75 40 79
    10 10 7 23 -5 23 -6 0 -13 -9 -16 -20z"
        />
        <path d="M692 1058 l-2 -118 68 2 67 1 -60 6 -60 6 -6 110 -5 110 -2 -117z" />
        <path
          d="M1101 963 l-1 -23 183 2 182 3 -177 2 c-157 3 -177 5 -181 21 -3 12
    -5 11 -6 -5z"
        />
        <path
          d="M1600 956 c0 -14 20 -16 188 -14 l187 2 -174 3 c-108 2 -180 8 -188
    14 -10 9 -13 8 -13 -5z"
        />
        <path
          d="M2110 958 c0 -17 15 -18 203 -16 l202 3 -195 2 c-140 3 -196 7 -202
    16 -5 8 -8 7 -8 -5z"
        />
      </g>
    </svg>